ply
format ascii 1.0
element vertex 114
comment vertices
property float x
property float y
property float z
end_header
-0.513724565505981445 1.88933873176574707 -1.21049737930297852
1.12214350700378418 2.61731386184692383 -1.10642850399017334
0.0258733294904232025 2.70498037338256836 -1.16616165637969971
0.218925818800926208 1.36796987056732178 -1.08598017692565918
0.282898932695388794 2.99773764610290527 -1.16751968860626221
-1.09270799160003662 2.45663714408874512 -1.1075979471206665
-0.283403992652893066 3.91042160987854004 -1.10787343978881836
0.078666985034942627 2.55315637588500977 -1.17195487022399902
-0.0454737618565559387 2.40752482414245605 -1.15789639949798584
1.11407482624053955 2.5992732048034668 -1.09345626831054688
-0.017454780638217926 2.67997980117797852 -1.17540562152862549
0.130330294370651245 2.93361330032348633 -1.16842663288116455
0.724770605564117432 3.54544830322265625 -1.12325036525726318
0.677681982517242432 2.18041729927062988 -1.10948920249938965
0.196954071521759033 1.38044285774230957 -1.12440764904022217
-0.655616819858551025 2.65293669700622559 -1.16229832172393799
1.11150515079498291 2.61636185646057129 -1.12029838562011719
-0.330207943916320801 2.086456298828125 -1.20086324214935303
-0.366761386394500732 3.85010457038879395 -1.12561619281768799
0.17613200843334198 1.39964377880096436 -1.10526418685913086
0.753731906414031982 3.52018022537231445 -1.12364959716796875
-1.09451782703399658 2.45232915878295898 -1.06680941581726074
0.64146798849105835 2.16626882553100586 -1.11996889114379883
0.028897259384393692 2.60994482040405273 -1.17601025104522705
0.67115098237991333 2.18065476417541504 -1.10068380832672119
0.674759864807128906 2.203582763671875 -1.12895703315734863
-0.276556432247161865 2.07880520820617676 -1.20913815498352051
1.08815467357635498 2.62532663345336914 -1.08094882965087891
0.0497982241213321686 2.7357935905456543 -1.17221212387084961
-0.405105948448181152 2.12779450416564941 -1.1671440601348877
-0.300634801387786865 3.92575216293334961 -1.09112000465393066
0.0434111319482326508 2.78067421913146973 -1.1658865213394165
1.05353283882141113 2.66603803634643555 -1.08696019649505615
0.213644325733184814 1.35555028915405273 -1.10809671878814697
0.680843591690063477 2.17549800872802734 -1.09495270252227783
0.145762860774993896 2.89638853073120117 -1.15826272964477539
0.0690276697278022766 2.69980978965759277 -1.1650007963180542
-1.09427189826965332 2.45470809936523438 -1.10523605346679688
-0.0773555338382720947 2.56642317771911621 -1.16917252540588379
-0.287614345550537109 3.90702605247497559 -1.120857834815979
0.213061317801475525 1.35507106781005859 -1.12354934215545654
-0.0489982664585113525 3.16034746170043945 -1.14567732810974121
1.07938766479492188 2.65835094451904297 -1.07755541801452637
0.689955651760101318 2.16771030426025391 -1.09565341472625732
-0.0952725261449813843 2.69032025337219238 -1.16797482967376709
-0.751874029636383057 1.90171170234680176 -1.15015745162963867
0.0891759395599365234 2.78132224082946777 -1.19562792778015137
-0.423273921012878418 2.02511334419250488 -1.20571410655975342
0.203155264258384705 1.37702250480651855 -1.11428022384643555
0.723440170288085938 3.53942990303039551 -1.13477301597595215
0.741319417953491211 3.53139519691467285 -1.11063206195831299
-0.0993470251560211182 2.25716614723205566 -1.1963878870010376
0.226669013500213623 1.54367399215698242 -1.08750474452972412
1.15214097499847412 2.61248779296875 -1.11608326435089111
1.10706841945648193 2.61372852325439453 -1.08795619010925293
-0.139199361205101013 2.53010320663452148 -1.14338111877441406
-0.539391815662384033 2.0123603343963623 -1.1956557035446167
-0.131179019808769226 2.46576690673828125 -1.15731441974639893
0.751880526542663574 3.53085947036743164 -1.1444772481918335
0.754659831523895264 3.52163147926330566 -1.12817203998565674
-1.09132206439971924 2.45456123352050781 -1.07267999649047852
-0.182139530777931213 2.2830202579498291 -1.16999566555023193
-1.09385502338409424 2.45266342163085938 -1.09308135509490967
0.0190293863415718079 2.63107156753540039 -1.17990505695343018
0.0098992474377155304 2.50579619407653809 -1.15832865238189697
0.540808796882629395 2.47755956649780273 -1.13401281833648682
-0.320365577936172485 1.99493420124053955 -1.20383369922637939
0.725620925426483154 3.53962492942810059 -1.10813140869140625
0.734309613704681396 3.53286480903625488 -1.12692558765411377
0.678666293621063232 2.20441842079162598 -1.13113534450531006
0.672476291656494141 2.18720316886901855 -1.11858689785003662
0.902823269367218018 2.44917130470275879 -1.1131206750869751
0.672398090362548828 2.18229365348815918 -1.10840940475463867
0.678975343704223633 2.21643710136413574 -1.07074320316314697
1.09494137763977051 2.64546394348144531 -1.07143604755401611
0.096332453191280365 2.76063013076782227 -1.17960751056671143
0.633198142051696777 2.64257645606994629 -1.11935687065124512
-0.288532733917236328 3.90322566032409668 -1.12588691711425781
0.0783600658178329468 2.80456447601318359 -1.1835329532623291
1.11117422580718994 2.60963964462280273 -1.10902571678161621
-0.184532344341278076 2.29351115226745605 -1.18294084072113037
-0.571034073829650879 2.04321026802062988 -1.15703010559082031
0.208303302526473999 1.36473512649536133 -1.10425114631652832
0.712135016918182373 2.1937096118927002 -1.10593128204345703
-0.11391720175743103 2.41750097274780273 -1.17053902149200439
1.08473443984985352 2.6332700252532959 -1.07116115093231201
0.672906577587127686 2.17827939987182617 -1.09965002536773682
-1.08872818946838379 2.4593513011932373 -1.08837282657623291
0.0595772378146648407 2.71419334411621094 -1.17331612110137939
-1.09418535232543945 2.4545745849609375 -1.10026299953460693
-0.285153865814208984 2.02728366851806641 -1.20366156101226807
0.155994608998298645 2.66056251525878906 -1.16655647754669189
-0.32043921947479248 2.21267580986022949 -1.16179847717285156
-0.020382218062877655 2.72258424758911133 -1.16382050514221191
-0.00448647141456604004 2.48050689697265625 -1.15679013729095459
0.139438077807426453 2.76889538764953613 -1.1757732629776001
-0.590372025966644287 1.9670482873916626 -1.16984009742736816
0.216232955455780029 1.35700452327728271 -1.1194223165512085
0.194260448217391968 1.40331673622131348 -1.10658121109008789
0.075320027768611908 2.80027580261230469 -1.18130767345428467
-0.323448389768600464 2.08878684043884277 -1.19907927513122559
0.753528833389282227 3.51967954635620117 -1.11774814128875732
0.0566291697323322296 2.7237086296081543 -1.17796802520751953
-0.289677917957305908 3.91565895080566406 -1.09896695613861084
0.0129938721656799316 2.90613079071044922 -1.190277099609375
1.08764982223510742 2.63790559768676758 -1.08804988861083984
0.674931347370147705 2.17806363105773926 -1.09787166118621826
0.672337949275970459 2.19381308555603027 -1.11730849742889404
0.113158047199249268 2.8778836727142334 -1.14163541793823242
0.0544867441058158875 2.8796381950378418 -1.17579209804534912
0.095059610903263092 3.0615537166595459 -1.18018901348114014
1.12315547466278076 2.61781215667724609 -1.09494400024414062
0.183664023876190186 1.39850354194641113 -1.1019972562789917
1.09537005424499512 2.61807513236999512 -1.08097350597381592
