ply
format ascii 1.0
element vertex 256
comment vertices
property float x
property float y
property float z
end_header
0.208829641342163086 4.35557842254638672 -0.862204074859619141
-0.417682766914367676 1.98615169525146484 -1.23695778846740723
-1.8618316650390625 3.18752741813659668 -0.469270884990692139
1.12138223648071289 2.4986875057220459 -1.14012908935546875
-0.503958344459533691 4.24493217468261719 -0.865351438522338867
-0.241009801626205444 5.03789520263671875 -0.287965208292007446
-0.0142983943223953247 2.71167635917663574 -1.15967702865600586
-1.77069664001464844 2.72368550300598145 -1.11472427845001221
1.4565427303314209 3.4780426025390625 -1.13395440578460693
0.245777085423469543 1.41613280773162842 -1.04971802234649658
0.773813843727111816 4.75848150253295898 -0.430266082286834717
-1.13265180587768555 4.37672615051269531 -0.746899604797363281
0.308213174343109131 3.03791022300720215 -1.18516826629638672
-1.04562640190124512 2.40121626853942871 -1.11525225639343262
-1.27948653697967529 3.57666110992431641 -1.07600224018096924
0.531126916408538818 4.89596080780029297 -0.171047508716583252
1.1389927864074707 3.63220071792602539 -0.397828102111816406
-0.293628036975860596 3.92260837554931641 -1.12097322940826416
0.0984516888856887817 2.51558351516723633 -1.22830605506896973
-0.682352900505065918 4.76262712478637695 -0.32124859094619751
-0.0290907025337219238 2.38228940963745117 -1.17627513408660889
1.44225668907165527 4.26102304458618164 -0.928153812885284424
1.13630843162536621 2.61414670944213867 -1.07093954086303711
1.0814661979675293 4.38915777206420898 -0.882051467895507812
-1.27457201480865479 3.19330382347106934 -1.00296890735626221
1.03501498699188232 3.0281682014465332 -1.17425119876861572
0.380974471569061279 3.9163813591003418 -0.783322989940643311
-0.0681066215038299561 2.72069048881530762 -1.1616368293762207
0.0891634523868560791 2.98084545135498047 -1.16930711269378662
-1.09302687644958496 4.40718698501586914 -0.383082151412963867
0.683543562889099121 3.32488417625427246 -1.24352145195007324
0.689383268356323242 2.18728995323181152 -1.11866891384124756
0.948522388935089111 4.46177196502685547 -0.138688415288925171
-1.23940753936767578 3.98750019073486328 -0.354437589645385742
0.138568580150604248 4.42247390747070312 -0.845588922500610352
-1.15702271461486816 4.06023693084716797 -1.06626784801483154
0.0821482613682746887 1.38660693168640137 -1.14882004261016846
0.506200194358825684 4.44186162948608398 -0.659096837043762207
-0.666998088359832764 2.59784722328186035 -1.16004979610443115
0.0617192089557647705 4.82392215728759766 -0.745097994804382324
-1.74275755882263184 3.55126333236694336 -0.68167579174041748
1.12017059326171875 2.65648317337036133 -1.13753199577331543
-0.324092507362365723 2.14519929885864258 -1.21468687057495117
-0.438670635223388672 3.76252269744873047 -1.17190289497375488
1.10489988327026367 4.1852569580078125 -0.883207917213439941
-1.06643068790435791 4.43006706237792969 -0.557384490966796875
0.116543009877204895 1.51103568077087402 -1.14004898071289062
0.735572576522827148 3.55213165283203125 -1.11338675022125244
0.57038801908493042 3.75278282165527344 -0.829787015914916992
-2.15578627586364746 2.57102131843566895 -0.639185249805450439
-0.77874225378036499 4.80340290069580078 -0.709357380867004395
-1.09403371810913086 2.48845005035400391 -1.04293262958526611
0.458963155746459961 2.22171354293823242 -1.16511857509613037
0.094905368983745575 4.84018754959106445 -0.243256241083145142
-1.26197099685668945 3.72213864326477051 -1.10270261764526367
0.841146647930145264 4.13955163955688477 -0.992286860942840576
0.059418894350528717 2.59065914154052734 -1.19320416450500488
0.659797728061676025 4.60206317901611328 -0.513804316520690918
1.01070034503936768 4.19205331802368164 -0.949203073978424072
0.661934256553649902 2.21015787124633789 -1.08883166313171387
0.684861361980438232 2.3195500373840332 -1.18547141551971436
-1.48009645938873291 2.67914819717407227 -1.01578855514526367
-0.275764286518096924 2.11203098297119141 -1.23273015022277832
1.05623471736907959 2.63274431228637695 -1.0771024227142334
0.512070775032043457 4.41179466247558594 -0.628358185291290283
1.46061301231384277 3.85973739624023438 -0.228096678853034973
-1.15895414352416992 3.04532814025878906 -1.20888686180114746
0.0117684602737426758 2.76946759223937988 -1.16442394256591797
-0.96647411584854126 3.93932604789733887 -1.18480336666107178
-0.365219742059707642 2.19520068168640137 -1.144287109375
-0.372035562992095947 3.9353489875793457 -1.07830905914306641
-0.0177741721272468567 2.84139752388000488 -1.16639816761016846
-1.92802643775939941 3.92226266860961914 -0.555904567241668701
0.838466644287109375 2.75991058349609375 -1.14362967014312744
0.468166649341583252 4.20663070678710938 -0.729719460010528564
0.816895246505737305 4.61942052841186523 -0.477228522300720215
-0.679501056671142578 4.37306785583496094 -0.796998143196105957
0.202470138669013977 1.38353407382965088 -1.08457517623901367
0.230538100004196167 4.48096752166748047 -0.738969683647155762
0.550375759601593018 4.13619327545166016 -0.69396740198135376
-1.06165504455566406 4.34436607360839844 -0.385219722986221313
1.10901355743408203 3.36467885971069336 -1.13679289817810059
0.607061982154846191 2.17566347122192383 -1.07126212120056152
-1.60061538219451904 3.65023946762084961 -0.489491462707519531
0.144661903381347656 2.95067143440246582 -1.12480592727661133
0.0929308831691741943 2.7056434154510498 -1.16582620143890381
0.278281569480895996 4.79586458206176758 -0.594503343105316162
-0.909086108207702637 4.57420921325683594 -0.639473497867584229
-1.07234275341033936 2.47734189033508301 -1.1240532398223877
-0.14788818359375 2.57436966896057129 -1.18590450286865234
-0.336555302143096924 4.77627468109130859 -0.90849834680557251
-0.712090373039245605 4.75366067886352539 -0.264992773532867432
-0.309428602457046509 3.92447996139526367 -1.15287721157073975
0.578641176223754883 4.65566587448120117 -0.641592144966125488
0.218351215124130249 1.40147125720977783 -1.12403488159179688
-0.0704809054732322693 3.19902515411376953 -1.13438916206359863
-1.13467323780059814 3.91503643989562988 -0.607585012912750244
1.58820557594299316 4.11379575729370117 -0.999602198600769043
0.61608421802520752 4.31929683685302734 -0.781750679016113281
0.712543606758117676 4.1462860107421875 -0.538386821746826172
0.96477806568145752 2.72512459754943848 -1.09607052803039551
-1.00780081748962402 4.00628852844238281 -0.934274911880493164
0.713098347187042236 2.11426997184753418 -1.09389781951904297
0.757920622825622559 4.28078937530517578 -0.360664725303649902
-1.13992726802825928 3.67277312278747559 -1.11606574058532715
1.01295268535614014 4.15465974807739258 -0.603496134281158447
-0.874076902866363525 3.75214195251464844 -1.12477409839630127
0.494445681571960449 4.62296915054321289 -0.637098789215087891
-0.198427051305770874 2.72070813179016113 -1.18924903869628906
0.750651657581329346 4.4942784309387207 -0.748808205127716064
-0.0804124176502227783 4.80611181259155273 -0.52422177791595459
-0.548010468482971191 2.03457021713256836 -1.14942252635955811
0.0706810504198074341 2.84550786018371582 -1.21043848991394043
-0.377249807119369507 2.08910560607910156 -1.22648012638092041
-1.38279497623443604 5.08141613006591797 -0.520698487758636475
0.965025484561920166 3.98821902275085449 -0.962690949440002441
0.220638811588287354 1.45757091045379639 -1.13469183444976807
0.864991724491119385 3.66535043716430664 -1.05096769332885742
-1.37007641792297363 2.92733097076416016 -0.896014988422393799
0.755990743637084961 3.51987552642822266 -1.11936163902282715
-0.0793969929218292236 2.26663684844970703 -1.225860595703125
0.216261669993400574 1.70811557769775391 -1.06114411354064941
1.24031245708465576 2.68768191337585449 -1.1429450511932373
1.1231992244720459 2.65013694763183594 -1.07030367851257324
-0.209064215421676636 2.55972099304199219 -1.1568753719329834
0.909886419773101807 3.71307587623596191 -0.843132734298706055
-0.464266479015350342 2.10630559921264648 -1.22082734107971191
-1.23142600059509277 4.31584024429321289 -0.956024408340454102
-0.194914892315864563 2.53092288970947266 -1.15652906894683838
1.2113189697265625 4.42670297622680664 -0.920646846294403076
-1.28220820426940918 3.24045181274414062 -1.04226350784301758
0.718893945217132568 3.79106974601745605 -0.936157464981079102
-2.05129241943359375 2.61246681213378906 -0.55194622278213501
0.710798144340515137 3.58101344108581543 -1.1190636157989502
-1.07086420059204102 2.38615703582763672 -1.04332411289215088
0.77177584171295166 3.76192665100097656 -0.636736273765563965
-0.198531985282897949 2.29675912857055664 -1.16508233547210693
-1.02398586273193359 4.60921335220336914 -0.615275025367736816
0.342457950115203857 4.0522456169128418 -1.06508898735046387
0.957280516624450684 4.2810664176940918 -0.901232063770294189
-1.07395994663238525 2.44430351257324219 -1.09419107437133789
-0.0365274995565414429 4.6993412971496582 -0.701828598976135254
0.0474295616149902344 2.62055516242980957 -1.19641280174255371
0.500284194946289062 4.09435558319091797 -0.863201558589935303
0.427875995635986328 4.09982156753540039 -0.641302943229675293
0.0201897565275430679 2.52786922454833984 -1.14196300506591797
0.455874413251876831 2.47573471069335938 -1.1459115743637085
1.28542184829711914 4.3747248649597168 -0.0292287468910217285
0.765175521373748779 3.94359064102172852 -1.05911660194396973
-0.258600294589996338 2.00985598564147949 -1.22725677490234375
-0.651293694972991943 4.27292728424072266 -0.879226624965667725
0.790409088134765625 3.4943692684173584 -1.11891818046569824
-0.946773290634155273 4.46766424179077148 -0.531640410423278809
-1.11258208751678467 3.5624849796295166 -1.19806396961212158
0.665611565113067627 3.45279121398925781 -1.12988853454589844
0.617499709129333496 2.22771787643432617 -1.18929505348205566
-1.40106809139251709 3.62708187103271484 -0.550897955894470215
0.833567440509796143 4.61468839645385742 -0.570322871208190918
0.640825271606445312 2.17613768577575684 -1.14601576328277588
-0.00277833640575408936 4.44585132598876953 -0.503394544124603271
0.882668673992156982 4.76696014404296875 -0.451467990875244141
-1.25684714317321777 4.10216474533081055 -1.03523755073547363
-1.45260190963745117 3.01893925666809082 -1.13219237327575684
0.928128421306610107 2.41503286361694336 -1.15706443786621094
-1.51654863357543945 4.58574533462524414 -0.71533203125
0.681877970695495605 2.2104649543762207 -1.11329412460327148
0.649386584758758545 3.64563226699829102 -0.695237517356872559
0.386543750762939453 3.9736015796661377 -0.873995423316955566
1.55678296089172363 4.21490621566772461 -0.983384251594543457
0.744789004325866699 2.3263094425201416 -1.05710864067077637
1.00573647022247314 2.65848469734191895 -1.07341086864471436
-1.33676469326019287 4.5643620491027832 -0.708660006523132324
0.0820138677954673767 2.80767083168029785 -1.17075252532958984
0.246422052383422852 4.64632654190063477 -0.343540012836456299
0.678556442260742188 4.59758377075195312 -0.557850956916809082
-1.69632208347320557 3.67414522171020508 -0.640491127967834473
0.604512035846710205 2.64202332496643066 -1.16318285465240479
-0.240134209394454956 3.81691169738769531 -1.13486647605895996
0.0511733889579772949 2.88048601150512695 -1.17942678928375244
1.12160015106201172 2.56367611885070801 -1.11730313301086426
1.0910181999206543 4.08453369140625 -0.490363210439682007
0.656740367412567139 4.51927328109741211 -0.479371249675750732
-1.31901204586029053 3.56960415840148926 -0.948693394660949707
0.83610224723815918 4.69703912734985352 -0.524618864059448242
-0.203509747982025146 2.3066718578338623 -1.18964195251464844
-0.470855206251144409 2.13098287582397461 -1.14583754539489746
-0.274706482887268066 4.72648048400878906 -0.542242944240570068
0.191483840346336365 1.40249466896057129 -1.0838468074798584
-1.23685741424560547 4.22065591812133789 -0.558222293853759766
0.257366299629211426 4.12372589111328125 -0.728969335556030273
-1.90647208690643311 3.06084775924682617 -0.561325132846832275
0.931747555732727051 2.25644707679748535 -1.14850103855133057
-1.197174072265625 4.25874567031860352 -0.36765483021736145
0.202885448932647705 4.36010265350341797 -0.71538853645324707
-0.837301135063171387 4.32924795150756836 -0.847409844398498535
-0.142232567071914673 2.43946409225463867 -1.17489385604858398
0.833973169326782227 4.69400596618652344 -0.522594749927520752
0.357131421566009521 4.30646896362304688 -0.867579817771911621
0.415950208902359009 4.65727710723876953 -0.625869035720825195
1.0677182674407959 2.68734335899353027 -1.06251382827758789
0.670876502990722656 2.18304872512817383 -1.09065568447113037
-1.05169010162353516 2.51355409622192383 -1.09529435634613037
0.838715076446533203 3.87289953231811523 -0.473828822374343872
0.0391249656677246094 2.71910381317138672 -1.18359053134918213
-0.706370949745178223 4.26290702819824219 -0.961570978164672852
-1.06782662868499756 2.43411421775817871 -1.10628902912139893
-0.260488986968994141 2.03117752075195312 -1.22718143463134766
0.260798066854476929 4.33607959747314453 -0.725087881088256836
0.216713249683380127 2.65891051292419434 -1.18137717247009277
-1.15830826759338379 3.67244577407836914 -1.17074739933013916
1.2446749210357666 3.89008760452270508 -0.349323272705078125
-1.07535243034362793 4.2984619140625 -0.396779090166091919
-0.332388699054718018 2.28185415267944336 -1.13162374496459961
0.298525810241699219 4.47292137145996094 -0.800167679786682129
-0.0860234498977661133 2.76250886917114258 -1.17135477066040039
-1.09827494621276855 3.42957544326782227 -1.07854986190795898
-1.57923579216003418 3.51103568077087402 -0.419769763946533203
-0.0165089815855026245 2.4869077205657959 -1.16890716552734375
0.144320741295814514 2.80512285232543945 -1.20012617111206055
-0.490997314453125 2.07608318328857422 -1.18265509605407715
0.756049692630767822 4.34013462066650391 -0.62333601713180542
0.171594738960266113 1.34813058376312256 -1.10520970821380615
0.198203131556510925 1.54858243465423584 -1.16003048419952393
0.0422705411911010742 2.87445926666259766 -1.1746983528137207
-0.435283750295639038 4.85728073120117188 -0.412895321846008301
0.578552186489105225 4.55008411407470703 -0.633495211601257324
-0.318523973226547241 2.146331787109375 -1.21209073066711426
0.534347355365753174 4.31063175201416016 -0.686498165130615234
-1.78012621402740479 4.00577497482299805 -0.512628316879272461
0.743347108364105225 3.55365920066833496 -1.13450145721435547
0.0276870802044868469 2.73488378524780273 -1.19397568702697754
-0.999204754829406738 3.97108983993530273 -1.04040741920471191
-0.987866044044494629 4.16819953918457031 -0.681689918041229248
1.00272583961486816 3.83736085891723633 -1.07392823696136475
-0.327444463968276978 3.91278362274169922 -1.10191535949707031
0.733324050903320312 4.29438591003417969 -0.926027774810791016
0.860420584678649902 4.17267847061157227 -0.609886050224304199
-0.0612683296203613281 2.93793678283691406 -1.2069782018661499
0.658118546009063721 4.67436552047729492 -0.556989729404449463
-1.91122043132781982 3.51411938667297363 -0.514676451683044434
-1.06811833381652832 3.42845797538757324 -0.733455181121826172
0.992705941200256348 4.57464265823364258 -0.45908239483833313
0.943967938423156738 2.80374574661254883 -1.15798139572143555
-0.883724987506866455 4.4555048942565918 -0.476880759000778198
0.685784697532653809 2.20701766014099121 -1.08582985401153564
0.686619043350219727 2.25163149833679199 -1.14226508140563965
0.072550356388092041 2.93790721893310547 -1.10809230804443359
-1.24503481388092041 3.17127704620361328 -1.1965644359588623
-1.26342272758483887 4.19264698028564453 -0.568937718868255615
0.00123461335897445679 2.92165708541870117 -1.17887425422668457
-0.0330014228820800781 4.7646794319152832 -0.547443747520446777
0.0513545870780944824 3.11459565162658691 -1.16483986377716064
-0.36517798900604248 4.60470104217529297 -0.536873579025268555
1.16631567478179932 2.67242836952209473 -1.08665823936462402
0.165020614862442017 1.52828705310821533 -1.13961946964263916
1.09035134315490723 2.65049195289611816 -1.06563365459442139
