ply
format ascii 1.0
element vertex 256
comment vertices
property float x
property float y
property float z
end_header
0.34471854567527771 4.67064905166625977 -0.492747455835342407
-0.563305139541625977 1.92541599273681641 -1.20586645603179932
-2.96994304656982422 1.25804126262664795 -0.90276336669921875
1.15035116672515869 2.61156702041625977 -1.10982012748718262
1.31352055072784424 0.950272560119628906 -1.06591176986694336
0.0200881361961364746 2.68297839164733887 -1.1268010139465332
-1.05310571193695068 3.45495700836181641 -1.19395029544830322
-1.0470428466796875 3.55071306228637695 -0.585832357406616211
-2.23037528991699219 2.59485864639282227 -1.12489438056945801
1.13459193706512451 3.74153757095336914 -1.03823375701904297
0.672312736511230469 2.16103339195251465 -1.11758065223693848
0.947945296764373779 4.74268436431884766 -0.208441793918609619
-1.11169981956481934 2.45171713829040527 -1.10215127468109131
0.255946964025497437 3.06086134910583496 -1.11319267749786377
-1.16789722442626953 3.84026789665222168 -0.782669782638549805
-0.959943115711212158 2.86098527908325195 -1.11581683158874512
-0.296630024909973145 3.91697096824645996 -1.0945591926574707
0.662722945213317871 3.8004608154296875 -0.748688220977783203
0.197241976857185364 2.66724038124084473 -1.16674351692199707
0.116391181945800781 3.26760149002075195 -1.03295695781707764
1.10970330238342285 2.60699295997619629 -1.08980488777160645
0.198390841484069824 1.34775173664093018 -1.12725043296813965
-0.0162548571825027466 2.46784019470214844 -1.13835442066192627
0.74700850248336792 3.55977082252502441 -1.12492048740386963
0.249225378036499023 2.11917519569396973 -1.29210400581359863
0.968269586563110352 3.40776658058166504 -1.11964333057403564
-1.25092792510986328 2.77105522155761719 -1.1977078914642334
1.71635222434997559 3.1943356990814209 -1.13545370101928711
0.0338958688080310822 2.92287111282348633 -1.15696489810943604
0.041673753410577774 2.6350548267364502 -1.1706010103225708
0.596927881240844727 4.71346759796142578 -0.703071355819702148
0.690330624580383301 2.18575954437255859 -1.10048162937164307
-1.77276527881622314 2.98486471176147461 -0.56251370906829834
0.558474540710449219 4.03475093841552734 -0.919303357601165771
-0.679157078266143799 4.09077978134155273 -1.00187301635742188
0.303750514984130859 3.89651584625244141 -0.994155824184417725
-0.198446080088615417 2.1748654842376709 -1.21159148216247559
-1.24940824508666992 3.70252180099487305 -1.00713264942169189
1.23024916648864746 4.11967563629150391 -0.0521622300148010254
-0.524024307727813721 2.53069257736206055 -1.16499578952789307
1.11918258666992188 2.61984467506408691 -1.11664903163909912
0.362947285175323486 3.77842903137207031 -0.524930477142333984
-0.292359441518783569 2.13567042350769043 -1.18713927268981934
-1.25592970848083496 3.59630227088928223 -1.15498685836791992
-0.358926683664321899 3.83911681175231934 -1.12343227863311768
0.140666425228118896 3.45094823837280273 -0.758986353874206543
-1.70530223846435547 2.7177574634552002 -1.32514691352844238
-0.791481494903564453 3.98065805435180664 -0.572183966636657715
0.0257406383752822876 2.8975987434387207 -1.1432192325592041
-0.473772883415222168 4.55391597747802734 -0.234720140695571899
-2.74873447418212891 2.05334997177124023 -0.95299839973449707
0.772753715515136719 3.53636503219604492 -1.12871921062469482
2.28612136840820312 2.38410854339599609 -1.17681074142456055
0.718720912933349609 3.40900039672851562 -1.11467444896697998
-1.11188328266143799 2.45269227027893066 -1.05378079414367676
0.54720604419708252 4.25128364562988281 -0.68802112340927124
0.205105870962142944 1.35815811157226562 -1.13241338729858398
0.662980794906616211 2.20616626739501953 -1.12017321586608887
-1.03029239177703857 3.58399295806884766 -0.623247027397155762
1.10103321075439453 2.61904263496398926 -1.08962368965148926
0.689005672931671143 3.77806448936462402 -1.12369704246520996
0.362707197666168213 1.46287703514099121 -1.16801786422729492
0.0594902820885181427 2.5526885986328125 -1.17825925350189209
-2.53584003448486328 -0.0110316276550292969 -1.12449944019317627
-0.513770818710327148 4.63512468338012695 -0.319840908050537109
0.214553117752075195 1.36634457111358643 -1.09315609931945801
0.0756353884935379028 2.7505333423614502 -1.17245841026306152
0.668125271797180176 2.19978976249694824 -1.1071394681930542
0.0429825857281684875 2.5314028263092041 -1.16210639476776123
-1.31669509410858154 3.17568731307983398 -1.20424878597259521
1.1386340856552124 2.63539814949035645 -1.10411322116851807
0.0353365950286388397 2.76384997367858887 -1.15116453170776367
0.625434637069702148 4.47853755950927734 -0.55901867151260376
0.987838327884674072 3.53872990608215332 -1.06990993022918701
1.06969499588012695 4.4250030517578125 -0.806893467903137207
-0.367346465587615967 2.97286701202392578 -1.29078149795532227
-0.361949890851974487 1.99917221069335938 -1.21859192848205566
-0.334567755460739136 2.17454910278320312 -1.14208352565765381
0.488938331604003906 2.62697553634643555 -1.10955584049224854
1.29746508598327637 3.60585522651672363 -0.591565370559692383
0.108090907335281372 2.79119396209716797 -1.16364455223083496
0.028817247599363327 2.69973230361938477 -1.13084018230438232
-0.165305197238922119 1.77584278583526611 -1.42719745635986328
-0.0672245696187019348 2.34484100341796875 -1.17025339603424072
-0.292215675115585327 3.9128563404083252 -1.07633984088897705
0.909149527549743652 4.49635457992553711 -0.77819448709487915
0.125358313322067261 3.84031581878662109 -0.934001445770263672
-1.54823744297027588 4.2613530158996582 -1.02715897560119629
-1.45715248584747314 3.28971147537231445 -1.20840358734130859
-1.60681819915771484 2.5168149471282959 -1.08873510360717773
-1.80182921886444092 1.25986289978027344 -0.893914461135864258
1.32902133464813232 3.98980426788330078 -0.377132236957550049
-1.10637223720550537 2.45101404190063477 -1.09208190441131592
0.92090374231338501 3.66339349746704102 -0.490657269954681396
-0.705992400646209717 4.0073699951171875 -0.444643288850784302
-0.20478937029838562 4.85105800628662109 -0.274552434682846069
-0.172673746943473816 3.34918975830078125 -1.15829682350158691
0.805195927619934082 2.91318488121032715 -1.03564310073852539
-1.63505804538726807 2.75015997886657715 -0.757110714912414551
-0.133172497153282166 2.29309439659118652 -1.14042460918426514
0.0561911314725875854 4.13431501388549805 -0.659153878688812256
-0.158158063888549805 3.58611297607421875 -1.08245980739593506
0.688649654388427734 3.94868636131286621 -1.05466842651367188
1.28427207469940186 4.14103937149047852 -0.0766440033912658691
0.677075028419494629 2.196990966796875 -1.1035686731338501
0.75750279426574707 3.55254912376403809 -1.11698007583618164
1.06493926048278809 3.55627179145812988 -1.11011838912963867
-0.394144177436828613 2.32766151428222656 -1.2602846622467041
1.08477437496185303 2.6629490852355957 -1.058624267578125
0.0832027196884155273 2.09828519821166992 -1.18158185482025146
0.183232083916664124 1.36064016819000244 -1.13433599472045898
1.09433495998382568 2.66587591171264648 -1.06025099754333496
-0.300757527351379395 1.9653095006942749 -1.18659675121307373
1.58677554130554199 2.95136356353759766 -1.10355806350708008
1.33382797241210938 4.21132373809814453 -0.997345209121704102
1.63215649127960205 4.18017387390136719 -0.948594331741333008
1.71004033088684082 1.49013805389404297 -1.14332175254821777
-1.17493867874145508 4.9256443977355957 -0.825509548187255859
-0.162355884909629822 2.4769895076751709 -1.16442084312438965
1.18823599815368652 3.31220269203186035 -0.989350795745849609
-0.645651519298553467 2.10779476165771484 -1.24579799175262451
-1.59763312339782715 3.53299427032470703 -1.109039306640625
-1.07010018825531006 3.33025026321411133 -1.18633031845092773
1.1095508337020874 2.6110389232635498 -1.0848243236541748
-0.641876935958862305 1.85089898109436035 -1.16026616096496582
-0.69091033935546875 2.7082514762878418 -1.11394751071929932
0.368932723999023438 2.66959381103515625 -1.11413919925689697
-0.150014311075210571 2.39696907997131348 -1.14818203449249268
-0.453679561614990234 1.98507189750671387 -1.19961285591125488
0.208330094814300537 1.34962129592895508 -1.1121680736541748
0.654590189456939697 2.21425843238830566 -1.11147904396057129
0.723644137382507324 4.52387714385986328 -0.397185623645782471
0.669595062732696533 2.23893332481384277 -1.10390758514404297
1.74859416484832764 3.18361091613769531 -0.670477330684661865
-2.68738365173339844 2.67731094360351562 -0.980862855911254883
0.644494056701660156 4.11268949508666992 -1.02370250225067139
1.13170492649078369 2.65336489677429199 -1.09929680824279785
0.772851228713989258 3.53514218330383301 -1.12240397930145264
-1.10702192783355713 2.45073366165161133 -1.06121265888214111
0.759210884571075439 3.56171679496765137 -1.11127138137817383
-1.71981680393218994 3.99493074417114258 -0.86371159553527832
0.600281834602355957 4.66887044906616211 -0.388481378555297852
-0.296754986047744751 3.91130256652832031 -1.1089179515838623
0.500599384307861328 3.27419137954711914 -1.07798492908477783
-0.207372754812240601 2.58504867553710938 -1.2771766185760498
-2.42562103271484375 1.45459485054016113 -0.950844168663024902
0.668473601341247559 2.21823763847351074 -1.12231063842773438
0.542417764663696289 4.56097078323364258 -0.798938214778900146
0.20808139443397522 1.36951339244842529 -1.10820448398590088
0.0185165032744407654 2.5259554386138916 -1.17617082595825195
-1.41688883304595947 2.22034645080566406 -1.12492465972900391
-1.77237367630004883 2.64081954956054688 -1.02733969688415527
-1.19827556610107422 3.80015206336975098 -0.410832047462463379
1.12796497344970703 3.56949090957641602 -1.02734088897705078
0.664970993995666504 2.20219278335571289 -1.10375404357910156
-0.935086727142333984 2.93295168876647949 -1.27056634426116943
-1.16110849380493164 4.53810644149780273 -0.860985815525054932
0.641246140003204346 3.75084376335144043 -0.976146996021270752
-1.10516977310180664 2.45094537734985352 -1.08623051643371582
-0.121603399515151978 2.62094306945800781 -1.15832126140594482
-1.11467826366424561 3.21405410766601562 -0.672573506832122803
0.748683810234069824 3.55227327346801758 -1.10325896739959717
0.654919564723968506 4.3819432258605957 -0.593539714813232422
1.26380789279937744 4.55560064315795898 -0.054995998740196228
0.0497526712715625763 2.50549674034118652 -1.16357481479644775
-0.200620144605636597 3.43538618087768555 -0.953656792640686035
1.07782256603240967 2.63878798484802246 -1.0857551097869873
0.678847670555114746 2.21578717231750488 -1.10805714130401611
0.795422255992889404 3.80501914024353027 -1.11524856090545654
-0.0113496407866477966 2.53320026397705078 -1.15621340274810791
1.05286490917205811 3.50853133201599121 -0.943483650684356689
-1.25615119934082031 4.42655801773071289 -0.977376401424407959
0.667982339859008789 2.22024226188659668 -1.12321615219116211
-1.03438162803649902 2.69435429573059082 -1.29998302459716797
0.680936872959136963 2.22402095794677734 -1.0798037052154541
0.0664095282554626465 2.94528603553771973 -1.14840757846832275
0.180440217256546021 3.67344164848327637 -1.18637335300445557
-1.24609339237213135 1.7418982982635498 -0.928407073020935059
0.937206745147705078 2.98472118377685547 -1.01063263416290283
0.008355678990483284 2.46810460090637207 -1.15930342674255371
-0.314680397510528564 2.18047642707824707 -1.16534256935119629
0.666841745376586914 2.19846224784851074 -1.10136842727661133
-0.0526564121246337891 2.53874874114990234 -1.15662920475006104
0.888175547122955322 3.75714397430419922 -1.09641134738922119
-0.0429910793900489807 2.83852171897888184 -1.18234312534332275
-0.254330039024353027 3.40275359153747559 -1.00684654712677002
0.761993885040283203 3.4519507884979248 -1.09361004829406738
0.131671547889709473 2.66016817092895508 -1.13841772079467773
-1.18362271785736084 3.62114739418029785 -1.16779947280883789
-0.630374550819396973 2.47954702377319336 -1.05084598064422607
-0.718632698059082031 3.30606579780578613 -0.93127906322479248
-1.62813448905944824 2.89183425903320312 -1.20428252220153809
1.10950112342834473 3.6499481201171875 -0.566871881484985352
0.640445113182067871 3.78551769256591797 -1.15842938423156738
-0.301606029272079468 3.79252052307128906 -0.881965279579162598
0.528248727321624756 3.56341218948364258 -1.12581825256347656
0.114293083548545837 2.35234594345092773 -1.1556776762008667
0.597490906715393066 4.01661777496337891 -0.976783990859985352
-1.49770867824554443 3.40559673309326172 -0.453260183334350586
-0.264922350645065308 2.15928435325622559 -1.16394960880279541
0.017366211861371994 1.96124029159545898 -1.18593502044677734
1.09018301963806152 2.63489556312561035 -1.06971836090087891
-0.566877424716949463 3.60746479034423828 -0.839154601097106934
-1.112526535987854 2.45870113372802734 -1.06550955772399902
0.0939312055706977844 2.78531336784362793 -1.16599071025848389
-1.13573026657104492 3.07476496696472168 -1.21249186992645264
-0.0979570001363754272 2.39916443824768066 -1.18841171264648438
-0.13837568461894989 3.12864589691162109 -1.15281403064727783
0.0279028639197349548 2.61744213104248047 -1.12960147857666016
0.340080916881561279 2.78415989875793457 -1.06225848197937012
-2.37221050262451172 -0.372035503387451172 -1.10867702960968018
-1.10536229610443115 2.4489891529083252 -1.08332061767578125
-0.702954232692718506 4.0846400260925293 -0.626466929912567139
0.028729952871799469 2.73102021217346191 -1.13617205619812012
1.1180565357208252 4.0449824333190918 -0.374371618032455444
0.299722075462341309 3.98456835746765137 -1.06975734233856201
-0.289642691612243652 1.98771357536315918 -1.19558227062225342
0.511612594127655029 3.42993664741516113 -0.793243110179901123
-0.43630644679069519 2.03885626792907715 -1.17127501964569092
0.670231759548187256 4.02190446853637695 -0.927401900291442871
-0.878763318061828613 2.91301774978637695 -1.26625907421112061
-0.998469829559326172 3.99086642265319824 -1.00225651264190674
-0.0856297612190246582 1.77877354621887207 -1.15755784511566162
1.34324038028717041 3.46978282928466797 -0.6034737229347229
0.240896329283714294 3.04526257514953613 -1.15763449668884277
0.0186382979154586792 2.7168424129486084 -1.13888716697692871
0.0575784072279930115 2.71570301055908203 -1.16747534275054932
0.0142071805894374847 2.5303657054901123 -1.17344045639038086
-0.585685193538665771 1.9321293830871582 -1.17724502086639404
0.203143402934074402 1.36762857437133789 -1.10130059719085693
-0.452219307422637939 1.91130387783050537 -1.22011804580688477
0.831139743328094482 4.45301961898803711 -0.315939337015151978
0.166479349136352539 3.29384565353393555 -0.96346282958984375
-1.89378905296325684 3.53920555114746094 -0.971638679504394531
0.664858162403106689 2.2023322582244873 -1.11014354228973389
-1.17498195171356201 3.1988682746887207 -0.736223816871643066
-0.0188419893383979797 2.86905312538146973 -1.16063439846038818
0.0620044171810150146 2.38979721069335938 -1.12126779556274414
-1.010001540184021 2.16507506370544434 -1.37030649185180664
1.74937343597412109 2.59856486320495605 -0.758227348327636719
-0.298396974802017212 3.90828323364257812 -1.1199880838394165
0.735877573490142822 3.93431258201599121 -1.11442482471466064
0.0387841947376728058 2.66600346565246582 -1.12000751495361328
0.0645450949668884277 2.92818427085876465 -1.09855926036834717
-0.130081906914710999 2.34273123741149902 -1.15077149868011475
-1.0449213981628418 3.47562146186828613 -1.11548531055450439
1.70542776584625244 3.94127821922302246 -1.01302850246429443
1.12708389759063721 2.61146926879882812 -1.08990824222564697
-1.07861804962158203 3.67440223693847656 -1.169624924659729
-0.305021047592163086 2.0226590633392334 -1.1939467191696167
1.09956216812133789 2.6215822696685791 -1.0778423547744751
-0.280508100986480713 3.91746187210083008 -1.0775001049041748
-1.98338830471038818 3.60663008689880371 -0.923381328582763672
-2.13220453262329102 1.3135678768157959 -0.968914270401000977
-0.00479605048894882202 2.44595646858215332 -1.171303391456604
-1.07898128032684326 3.34140443801879883 -0.985461711883544922
