ply
format ascii 1.0
element vertex 256
comment vertices
property float x
property float y
property float z
end_header
0.500240862369537354 4.72004795074462891 -0.51734459400177002
-0.475257664918899536 2.04796504974365234 -1.2411952018737793
-2.01163864135742188 2.81643509864807129 -0.495239228010177612
1.20772838592529297 2.59817171096801758 -1.15232980251312256
1.01394319534301758 3.59577226638793945 -0.428881704807281494
-0.0468808263540267944 2.70928311347961426 -1.13171529769897461
-1.08281970024108887 3.78094339370727539 -1.10656046867370605
-1.05975723266601562 4.35938167572021484 -0.407899320125579834
-1.7452702522277832 2.74027824401855469 -1.1180187463760376
1.05603015422821045 4.0046234130859375 -0.857706546783447266
0.574773788452148438 2.04471349716186523 -1.13141608238220215
0.725442230701446533 4.81365442276000977 -0.19078555703163147
-1.06010246276855469 2.39735722541809082 -1.11726629734039307
0.284289836883544922 3.08820939064025879 -1.07958018779754639
-1.09418511390686035 4.56673288345336914 -0.638200879096984863
-1.05699801445007324 3.69559001922607422 -0.825793027877807617
-0.322360455989837646 3.9075007438659668 -1.09787654876708984
0.595335721969604492 4.41048431396484375 -0.609716117382049561
0.299400627613067627 2.67492365837097168 -1.22595643997192383
0.50055539608001709 3.97900605201721191 -0.789879322052001953
1.10612297058105469 2.62567567825317383 -1.06858861446380615
0.189590245485305786 1.37067413330078125 -1.11776196956634521
-0.0162891149520874023 2.48734402656555176 -1.13939869403839111
0.614797890186309814 3.34797358512878418 -1.22610676288604736
-0.822742223739624023 3.19218063354492188 -1.05737531185150146
1.06342077255249023 3.39846205711364746 -1.14733254909515381
-1.22643578052520752 3.24892187118530273 -1.07957983016967773
1.24285387992858887 3.93527913093566895 -0.934276103973388672
-0.0115106701850891113 2.96790623664855957 -1.15689659118652344
0.0310361087322235107 2.64719200134277344 -1.17827141284942627
0.60589677095413208 4.6640472412109375 -0.695467948913574219
0.739654183387756348 2.15207576751708984 -1.10999190807342529
-1.4648357629776001 3.84740352630615234 -0.37870103120803833
0.591209113597869873 4.29325389862060547 -0.775858402252197266
-0.621658444404602051 4.34828042984008789 -0.877122998237609863
0.392124950885772705 4.29334831237792969 -0.748486995697021484
-0.202530533075332642 2.17918682098388672 -1.23594629764556885
-0.949336588382720947 4.48797273635864258 -0.768887817859649658
1.19597303867340088 4.10394859313964844 -0.213951259851455688
-0.524355649948120117 2.52186942100524902 -1.15703284740447998
1.12752366065979004 2.65623927116394043 -1.14158344268798828
0.122169479727745056 4.52616071701049805 -0.341933876276016235
-0.275180041790008545 2.17712664604187012 -1.19705367088317871
-1.00507497787475586 4.08980703353881836 -0.988444805145263672
-0.417779028415679932 3.71917176246643066 -1.16861093044281006
0.299249529838562012 4.42584991455078125 -0.488989055156707764
-1.26343894004821777 3.5157783031463623 -1.23846626281738281
-1.08437466621398926 4.66498470306396484 -0.480633705854415894
0.268476307392120361 4.07107782363891602 -0.803942978382110596
-0.506675481796264648 4.90214824676513672 -0.287201374769210815
-1.92384099960327148 3.55125331878662109 -0.587294578552246094
0.736869752407073975 3.56154417991638184 -1.1068427562713623
1.60101866722106934 3.89460349082946777 -0.926858007907867432
0.786755502223968506 3.20656752586364746 -1.18288016319274902
-1.11238992214202881 2.49428963661193848 -1.02903103828430176
0.628483414649963379 4.46835803985595703 -0.662076115608215332
0.231154263019561768 1.42945623397827148 -1.1478886604309082
0.669971287250518799 2.25393486022949219 -1.14406037330627441
-0.95166856050491333 4.34666728973388672 -0.440005868673324585
1.07566249370574951 2.64383554458618164 -1.08286917209625244
0.777535140514373779 3.95371031761169434 -0.97645270824432373
0.569116830825805664 3.59020352363586426 -0.768079400062561035
0.087474822998046875 2.57978677749633789 -1.19250035285949707
-2.06414055824279785 2.62716197967529297 -0.659462273120880127
-0.482629477977752686 4.91780233383178711 -0.35190117359161377
0.246549636125564575 1.43945395946502686 -1.06946134567260742
0.0630257725715637207 2.78865838050842285 -1.18241894245147705
0.680736303329467773 2.2094264030456543 -1.1107337474822998
0.0699745491147041321 2.56079554557800293 -1.13066720962524414
-1.2139209508895874 3.6061251163482666 -1.0381169319152832
1.10329031944274902 2.48271322250366211 -1.15635478496551514
-0.0116969272494316101 2.82503390312194824 -1.15570628643035889
0.610440909862518311 4.58610868453979492 -0.532699882984161377
1.0844351053237915 3.60632228851318359 -1.05911839008331299
0.835449337959289551 4.49102354049682617 -0.739082694053649902
-0.193888604640960693 4.54932498931884766 -0.845415353775024414
-0.32636415958404541 2.05911159515380859 -1.24596047401428223
-0.309483349323272705 2.21529769897460938 -1.13322842121124268
0.504301905632019043 2.58642292022705078 -1.14838171005249023
1.05340111255645752 4.05553770065307617 -0.460936814546585083
0.117265522480010986 2.85186123847961426 -1.1373828649520874
-0.0315826386213302612 2.73731470108032227 -1.13226425647735596
-1.06755852699279785 3.05455946922302246 -1.27435564994812012
-0.0390594154596328735 2.33950090408325195 -1.21713948249816895
-0.373711287975311279 3.92978334426879883 -1.10274934768676758
0.726035475730895996 4.54281330108642578 -0.675548970699310303
0.373805850744247437 4.39894676208496094 -0.745045244693756104
-1.1627967357635498 4.25598907470703125 -0.874007999897003174
-1.18857705593109131 3.69007682800292969 -1.09867298603057861
-1.54015982151031494 2.71136116981506348 -1.02653837203979492
-1.83017706871032715 3.4460451602935791 -0.397121697664260864
0.917870819568634033 4.61650800704956055 -0.449493408203125
-1.09106087684631348 2.47415542602539062 -1.11140501499176025
0.609424233436584473 4.40609502792358398 -0.378146767616271973
-0.793758749961853027 4.55243968963623047 -0.3714122474193573
-0.1133289635181427 4.98528671264648438 -0.369560182094573975
-0.143063023686408997 3.33958053588867188 -1.12158036231994629
0.65070343017578125 3.90166521072387695 -0.706498861312866211
-1.56904280185699463 3.60922670364379883 -0.590897858142852783
-0.105088233947753906 2.29898715019226074 -1.16493403911590576
-0.163580507040023804 4.70274639129638672 -0.506688594818115234
-0.55700838565826416 4.28623199462890625 -0.952648937702178955
0.76327359676361084 4.03249263763427734 -0.931394338607788086
1.27056431770324707 4.15973663330078125 -0.247892379760742188
0.704194366931915283 2.19876956939697266 -1.10708069801330566
0.778543651103973389 3.55267572402954102 -1.15609586238861084
1.14257681369781494 3.58617544174194336 -1.1340867280960083
-0.786087572574615479 3.98270797729492188 -0.914097487926483154
0.894712090492248535 2.6650383472442627 -1.06814515590667725
-0.741443157196044922 4.01576995849609375 -0.661684989929199219
0.138053953647613525 1.38287830352783203 -1.1497046947479248
0.960121273994445801 2.72824478149414062 -1.07787179946899414
-0.214012682437896729 1.99497628211975098 -1.20402979850769043
1.40772664546966553 3.02792239189147949 -1.15742599964141846
1.24774444103240967 4.22204113006591797 -0.91553264856338501
1.43519258499145508 4.20922756195068359 -0.946082592010498047
1.06245946884155273 3.66505956649780273 -0.566727817058563232
-1.02115893363952637 4.98410415649414062 -0.562235593795776367
-0.230597466230392456 2.52115511894226074 -1.16820299625396729
0.841749906539916992 4.09091615676879883 -0.585052549839019775
0.0812969803810119629 4.0589900016784668 -0.710541069507598877
-1.28911638259887695 3.80011200904846191 -0.938933372497558594
-1.04382824897766113 3.73045158386230469 -1.11744356155395508
1.11349701881408691 2.64054632186889648 -1.06386911869049072
-0.495168566703796387 2.0004889965057373 -1.15554630756378174
-0.776215195655822754 4.14285707473754883 -0.776379644870758057
0.28823620080947876 4.20684099197387695 -0.714931607246398926
-0.192647591233253479 2.41964292526245117 -1.15545833110809326
-0.401718199253082275 2.07647943496704102 -1.21796512603759766
0.223827868700027466 1.39361476898193359 -1.09236598014831543
0.655517458915710449 2.31181955337524414 -1.12636721134185791
0.480646342039108276 4.63042116165161133 -0.446498632431030273
0.485891133546829224 2.24407529830932617 -1.14507555961608887
1.29372286796569824 3.9688413143157959 -0.578693509101867676
-1.66028857231140137 3.68633675575256348 -0.678344964981079102
0.622893750667572021 4.28709697723388672 -0.882410883903503418
1.04464590549468994 2.5267336368560791 -1.14400851726531982
0.741642415523529053 3.58849954605102539 -1.1400001049041748
-1.07473492622375488 2.38037896156311035 -1.03285503387451172
0.778438687324523926 3.51361584663391113 -1.09451520442962646
-1.28674972057342529 4.49242401123046875 -0.608374416828155518
0.608694911003112793 4.70405101776123047 -0.520217478275299072
-0.322706699371337891 3.89956378936767578 -1.13085997104644775
0.656698226928710938 3.78638148307800293 -0.884305417537689209
0.146065115928649902 4.24804878234863281 -0.879491508007049561
-1.89951229095458984 2.9550623893737793 -0.540156424045562744
0.645214319229125977 2.17352008819580078 -1.16935837268829346
0.61434406042098999 4.57706975936889648 -0.74725031852722168
0.239601999521255493 1.45584571361541748 -1.10951018333435059
0.0563243627548217773 2.55688810348510742 -1.15234220027923584
-1.29721653461456299 3.66331005096435547 -0.761474847793579102
-1.46413660049438477 2.86825299263000488 -0.884092211723327637
-1.16322064399719238 4.26540517807006836 -0.348222702741622925
1.12748122215270996 3.76872587203979492 -0.955921709537506104
0.657347321510314941 2.19906830787658691 -1.10047996044158936
-1.03516912460327148 3.25861477851867676 -1.11040401458740234
-0.998206198215484619 4.65583372116088867 -0.729850888252258301
0.670776963233947754 3.94803714752197266 -0.781018853187561035
-1.0750192403793335 2.46479177474975586 -1.09798538684844971
-0.188589394092559814 2.6548919677734375 -1.18495392799377441
-1.17478466033935547 4.06419801712036133 -0.471677184104919434
0.575973212718963623 3.37686443328857422 -1.10612845420837402
0.65616309642791748 4.5568385124206543 -0.557586789131164551
1.04270565509796143 4.57797908782958984 -0.0753293931484222412
0.0954835116863250732 2.50038337707519531 -1.19774329662322998
0.192948400974273682 4.45692062377929688 -0.582077264785766602
1.02876877784729004 2.81873941421508789 -1.16230523586273193
0.820499777793884277 2.3008725643157959 -1.14482975006103516
0.892660617828369141 3.94578313827514648 -1.03686380386352539
-0.0474480465054512024 2.57569622993469238 -1.16702425479888916
0.702253937721252441 4.21160125732421875 -0.651303112506866455
-0.993272483348846436 4.49049997329711914 -0.887077808380126953
0.640816688537597656 2.17634916305541992 -1.17280375957489014
-1.12548685073852539 3.55475664138793945 -1.21037697792053223
0.724283695220947266 2.33147573471069336 -1.06719231605529785
0.0236190557479858398 3.00001430511474609 -1.13140034675598145
0.57451331615447998 4.11799049377441406 -1.05201590061187744
-1.6067349910736084 3.43949389457702637 -0.510723769664764404
1.01241099834442139 3.59227132797241211 -0.821346938610076904
0.0311619415879249573 2.48364758491516113 -1.17728304862976074
-0.307478159666061401 2.23802852630615234 -1.14702296257019043
0.675465106964111328 2.21544957160949707 -1.09339272975921631
-0.101228713989257812 2.60761141777038574 -1.13394737243652344
1.00458812713623047 3.88609957695007324 -1.001944899559021
-0.110528215765953064 2.86914777755737305 -1.20233798027038574
0.0324948877096176147 4.52111148834228516 -0.67525184154510498
0.903284847736358643 3.24746990203857422 -1.11120367050170898
0.197650432586669922 2.6575777530670166 -1.12206268310546875
-1.1364516019821167 3.80024576187133789 -1.0460665225982666
-0.884801387786865234 4.16490268707275391 -0.544626235961914062
-0.333270490169525146 4.44686794281005859 -0.520827651023864746
-1.38054656982421875 3.20933890342712402 -1.1677781343460083
0.745815277099609375 4.39568090438842773 -0.491862177848815918
0.744020223617553711 3.99869060516357422 -1.01932346820831299
-0.228058263659477234 4.6045069694519043 -0.521375775337219238
0.779413938522338867 3.89401102066040039 -1.02958965301513672
0.164115637540817261 2.30707144737243652 -1.20674943923950195
0.583926498889923096 4.11081171035766602 -0.832241415977478027
-1.3370974063873291 4.15116786956787109 -0.348877251148223877
-0.257270902395248413 2.20222806930541992 -1.14965081214904785
0.042956233024597168 1.95702779293060303 -1.19673550128936768
1.0714799165725708 2.69092416763305664 -1.05924761295318604
-0.685974240303039551 4.48319816589355469 -0.597557187080383301
-1.07415437698364258 2.52199363708496094 -1.06707215309143066
0.0801653861999511719 2.86406588554382324 -1.14955747127532959
-1.20466446876525879 3.34664130210876465 -1.16361749172210693
-0.0982371419668197632 2.41513824462890625 -1.22068130970001221
-0.117643207311630249 3.17974853515625 -1.14715743064880371
-0.00603067874908447266 2.64749479293823242 -1.14092791080474854
0.420555621385574341 4.06976222991943359 -0.610441505908966064
-2.06318449974060059 2.55645203590393066 -0.619085788726806641
-1.07925057411193848 2.43513321876525879 -1.0884549617767334
-0.698160171508789062 4.62589740753173828 -0.540716290473937988
-0.0203273296356201172 2.79002618789672852 -1.13276469707489014
0.840271592140197754 4.62185859680175781 -0.468343257904052734
0.499543607234954834 4.35543060302734375 -0.911892950534820557
-0.207064509391784668 2.02079033851623535 -1.22136807441711426
0.521291673183441162 4.36620521545410156 -0.561784744262695312
-0.382960677146911621 2.1270301342010498 -1.15615415573120117
0.67615354061126709 4.11417198181152344 -0.753511250019073486
-1.09184956550598145 3.56499910354614258 -1.14262139797210693
-0.816005945205688477 4.38700008392333984 -0.865383267402648926
-1.07947421073913574 3.63676190376281738 -0.627476632595062256
1.09679782390594482 4.0223236083984375 -0.452169656753540039
0.271256566047668457 3.05085492134094238 -1.17070567607879639
-0.0543161928653717041 2.76053166389465332 -1.14514720439910889
0.0126146078109741211 2.74091887474060059 -1.17548823356628418
0.00122030079364776611 2.56750178337097168 -1.20650267601013184
-0.47822880744934082 2.05672645568847656 -1.18364059925079346
0.218855470418930054 1.43921971321105957 -1.08716845512390137
-0.389376521110534668 1.997916579246521 -1.24772429466247559
0.821124434471130371 4.70028924942016602 -0.482976794242858887
0.479439914226531982 4.04632711410522461 -0.666534483432769775
-1.31074321269989014 4.02306270599365234 -0.806453108787536621
0.669781267642974854 2.2187800407409668 -1.11742544174194336
-1.03187680244445801 4.21198225021362305 -0.479528307914733887
-0.0845676586031913757 2.89643335342407227 -1.18141913414001465
0.451706290245056152 3.79621672630310059 -0.793289124965667725
-0.132127732038497925 4.1275324821472168 -0.924199104309082031
1.20963144302368164 3.81838512420654297 -0.495548009872436523
-0.323651313781738281 3.90800929069519043 -1.16056287288665771
0.759333372116088867 4.08708381652832031 -0.960312843322753906
-0.000177659094333648682 2.69307684898376465 -1.12721896171569824
-0.540869355201721191 4.18791103363037109 -0.90964663028717041
-0.14734986424446106 2.35030984878540039 -1.17409241199493408
-0.993633627891540527 3.82952713966369629 -0.982302844524383545
1.35156333446502686 4.13112163543701172 -0.911589860916137695
1.16328907012939453 2.65837335586547852 -1.07757270336151123
-1.0138317346572876 3.88764190673828125 -1.11874699592590332
-0.222552970051765442 2.05266833305358887 -1.23857176303863525
1.09036552906036377 2.65932750701904297 -1.05906558036804199
-0.351618140935897827 3.88431501388549805 -1.06665158271789551
-1.25424134731292725 4.54002285003662109 -0.603695929050445557
-1.86345958709716797 2.94447493553161621 -0.520115792751312256
0.0201105475425720215 2.45164823532104492 -1.19950962066650391
-1.0371776819229126 4.41052722930908203 -0.744903862476348877
