ply
format ascii 1.0
element vertex 256
comment vertices
property float x
property float y
property float z
end_header
-0.433718383312225342 3.4193568229675293 -1.15458285808563232
-0.513724565505981445 1.88933873176574707 -1.21049737930297852
-1.95443570613861084 1.36173295974731445 -0.903243958950042725
1.12214350700378418 2.61731386184692383 -1.10642850399017334
-0.329641968011856079 2.57053375244140625 -1.09934210777282715
0.131462663412094116 4.83160018920898438 -0.146043390035629272
0.0258733294904232025 2.70498037338256836 -1.16616165637969971
-2.26977920532226562 2.56955647468566895 -1.11736321449279785
1.49802327156066895 3.44713234901428223 -1.11514508724212646
0.218925818800926208 1.36796987056732178 -1.08598017692565918
0.74246978759765625 4.76410865783691406 -0.426509320735931396
-1.32026028633117676 3.45868086814880371 -0.959365189075469971
0.282898932695388794 2.99773764610290527 -1.16751968860626221
-1.09270799160003662 2.45663714408874512 -1.1075979471206665
-1.34619593620300293 3.23575806617736816 -1.17240381240844727
0.693046510219573975 4.8670039176940918 -0.19832804799079895
1.68194437026977539 0.586391687393188477 -1.06097960472106934
-0.283403992652893066 3.91042160987854004 -1.10787343978881836
0.078666985034942627 2.55315637588500977 -1.17195487022399902
-0.48216092586517334 4.15487003326416016 -0.278813302516937256
-0.0454737618565559387 2.40752482414245605 -1.15789639949798584
2.31598401069641113 3.97182059288024902 -1.08754527568817139
1.11407482624053955 2.5992732048034668 -1.09345626831054688
1.0565178394317627 4.35380363464355469 -0.888014316558837891
-1.31700718402862549 2.85546088218688965 -1.15981101989746094
0.954510509967803955 3.06197381019592285 -1.13659918308258057
0.300584077835083008 2.85531401634216309 -1.18025767803192139
-0.017454780638217926 2.67997980117797852 -1.17540562152862549
0.130330294370651245 2.93361330032348633 -1.16842663288116455
-1.0762946605682373 3.97390198707580566 -0.443829059600830078
0.724770605564117432 3.54544830322265625 -1.12325036525726318
0.677681982517242432 2.18041729927062988 -1.10948920249938965
1.2456279993057251 4.2069859504699707 -0.022200465202331543
-1.2893909215927124 3.14416742324829102 -0.533065974712371826
-0.62063896656036377 3.41401481628417969 -1.1983189582824707
-1.58406496047973633 3.65861916542053223 -1.15351176261901855
0.196954071521759033 1.38044285774230957 -1.12440764904022217
0.571918606758117676 3.98308491706848145 -0.920810341835021973
-0.655616819858551025 2.65293669700622559 -1.16229832172393799
-0.135114043951034546 4.33925914764404297 -0.860488295555114746
-1.97654271125793457 2.21957755088806152 -0.94022977352142334
1.11150515079498291 2.61636185646057129 -1.12029838562011719
-0.330207943916320801 2.086456298828125 -1.20086324214935303
-0.366761386394500732 3.85010457038879395 -1.12561619281768799
1.11930739879608154 4.02955198287963867 -0.982945561408996582
-1.12875187397003174 3.76108407974243164 -0.659440994262695312
0.17613200843334198 1.39964377880096436 -1.10526418685913086
0.753731906414031982 3.52018022537231445 -1.12364959716796875
0.678141951560974121 1.96562623977661133 -1.26463580131530762
-2.65199923515319824 -0.163240432739257812 -1.15318393707275391
-0.850866556167602539 4.72087240219116211 -0.828552484512329102
-1.09451782703399658 2.45232915878295898 -1.06680941581726074
0.64146798849105835 2.16626882553100586 -1.11996889114379883
0.504413604736328125 4.55547046661376953 -0.158694103360176086
-1.34762954711914062 3.32098293304443359 -1.18272578716278076
0.837045609951019287 4.02127981185913086 -1.06760251522064209
0.028897259384393692 2.60994482040405273 -1.17601025104522705
0.933502674102783203 4.2595977783203125 -0.742205798625946045
0.997865378856658936 4.09095287322998047 -1.01237916946411133
0.67115098237991333 2.18065476417541504 -1.10068380832672119
0.674759864807128906 2.203582763671875 -1.12895703315734863
-1.63527011871337891 1.42046225070953369 -1.14668953418731689
-0.276556432247161865 2.07880520820617676 -1.20913815498352051
1.08815467357635498 2.62532663345336914 -1.08094882965087891
0.589074015617370605 3.67865824699401855 -0.902828395366668701
1.93108284473419189 3.23062300682067871 -0.178864002227783203
-0.541941046714782715 1.53195226192474365 -1.37211120128631592
0.0497982241213321686 2.7357935905456543 -1.17221212387084961
-0.863340258598327637 3.69355201721191406 -1.19841694831848145
-0.405105948448181152 2.12779450416564941 -1.1671440601348877
-0.300634801387786865 3.92575216293334961 -1.09112000465393066
0.0434111319482326508 2.78067421913146973 -1.1658865213394165
-3.03057241439819336 1.52483940124511719 -1.2475583553314209
1.05353283882141113 2.66603803634643555 -1.08696019649505615
0.562685489654541016 3.23102807998657227 -1.1119312047958374
1.4054868221282959 3.95114994049072266 -0.668271839618682861
-0.861002862453460693 3.75706195831298828 -0.977217018604278564
0.213644325733184814 1.35555028915405273 -1.10809671878814697
-0.181213319301605225 3.87321281433105469 -0.980622410774230957
1.09092187881469727 2.69427824020385742 -1.16524851322174072
-1.04951751232147217 3.80395293235778809 -0.493528246879577637
1.0407254695892334 3.40296316146850586 -1.10769665241241455
0.680843591690063477 2.17549800872802734 -1.09495270252227783
-1.71825242042541504 2.94532203674316406 -0.595012366771697998
0.145762860774993896 2.89638853073120117 -1.15826272964477539
0.0690276697278022766 2.69980978965759277 -1.1650007963180542
0.3063545823097229 4.6783146858215332 -0.575207054615020752
-0.962172031402587891 3.88977766036987305 -0.73088228702545166
-1.09427189826965332 2.45470809936523438 -1.10523605346679688
-0.0773555338382720947 2.56642317771911621 -1.16917252540588379
-0.265435874462127686 4.4652247428894043 -1.17159759998321533
-0.6103782057762146 4.14625835418701172 -0.215092450380325317
-0.287614345550537109 3.90702605247497559 -1.120857834815979
0.667916059494018555 4.66445207595825195 -0.76442331075668335
0.213061317801475525 1.35507106781005859 -1.12354934215545654
-0.0489982664585113525 3.16034746170043945 -1.14567732810974121
-1.35632073879241943 2.60645008087158203 -0.941962122917175293
2.68187761306762695 3.46021270751953125 -1.15049099922180176
0.761347055435180664 3.82318973541259766 -1.04032659530639648
1.18979227542877197 3.03441929817199707 -1.02022266387939453
1.07938766479492188 2.65835094451904297 -1.07755541801452637
-0.927368521690368652 3.18437290191650391 -1.16898798942565918
0.689955651760101318 2.16771030426025391 -1.09565341472625732
1.35247194766998291 3.2483978271484375 -0.71394646167755127
-1.1127169132232666 3.41152143478393555 -1.18063807487487793
1.13047194480895996 3.72632122039794922 -0.773425757884979248
-0.0341196656227111816 2.57976722717285156 -1.34394943714141846
0.654639065265655518 4.11157417297363281 -0.740958988666534424
-0.0952725261449813843 2.69032025337219238 -1.16797482967376709
1.02647972106933594 4.30888032913208008 -0.951248884201049805
0.190385490655899048 4.38902568817138672 -0.616119682788848877
-0.751874029636383057 1.90171170234680176 -1.15015745162963867
0.0891759395599365234 2.78132224082946777 -1.19562792778015137
-0.423273921012878418 2.02511334419250488 -1.20571410655975342
-3.42759895324707031 4.43688583374023438 -0.937485218048095703
0.883898794651031494 3.91949963569641113 -1.05718517303466797
0.203155264258384705 1.37702250480651855 -1.11428022384643555
0.723440170288085938 3.53942990303039551 -1.13477301597595215
-1.34935688972473145 2.47235441207885742 -1.06663775444030762
0.741319417953491211 3.53139519691467285 -1.11063206195831299
-0.0993470251560211182 2.25716614723205566 -1.1963878870010376
0.226669013500213623 1.54367399215698242 -1.08750474452972412
1.15214097499847412 2.61248779296875 -1.11608326435089111
1.10706841945648193 2.61372852325439453 -1.08795619010925293
-0.139199361205101013 2.53010320663452148 -1.14338111877441406
0.85773855447769165 3.1948249340057373 -1.03154599666595459
-0.539391815662384033 2.0123603343963623 -1.1956557035446167
-1.67782831192016602 4.24130392074584961 -1.08204030990600586
-0.131179019808769226 2.46576690673828125 -1.15731441974639893
1.49206125736236572 4.48571205139160156 -0.956351697444915771
-1.29311227798461914 2.92006993293762207 -1.16887664794921875
0.751880526542663574 3.53085947036743164 -1.1444772481918335
-2.26740360260009766 -0.624653816223144531 -1.24387073516845703
0.754659831523895264 3.52163147926330566 -1.12817203998565674
-1.09132206439971924 2.45456123352050781 -1.07267999649047852
1.17847073078155518 2.25870108604431152 -1.12347602844238281
-0.182139530777931213 2.2830202579498291 -1.16999566555023193
-0.923327326774597168 4.00301694869995117 -0.741146862506866455
-0.323135912418365479 3.28182387351989746 -1.29783964157104492
0.928608298301696777 4.16558265686035156 -0.957185208797454834
-1.09385502338409424 2.45266342163085938 -1.09308135509490967
-0.164605677127838135 3.54493618011474609 -0.995239377021789551
0.0190293863415718079 2.63107156753540039 -1.17990505695343018
0.573656439781188965 3.55492401123046875 -1.1264263391494751
0.603439152240753174 2.3436577320098877 -1.22813701629638672
0.0098992474377155304 2.50579619407653809 -1.15832865238189697
0.540808796882629395 2.47755956649780273 -1.13401281833648682
1.30015468597412109 4.2852940559387207 0.0761246830224990845
0.678693413734436035 3.75879240036010742 -1.12740492820739746
-0.320365577936172485 1.99493420124053955 -1.20383369922637939
-0.877561330795288086 2.94856619834899902 -1.0276113748550415
0.725620925426483154 3.53962492942810059 -1.10813140869140625
-0.938573479652404785 3.70039010047912598 -0.704935550689697266
-1.12108135223388672 2.77610921859741211 -1.24851441383361816
0.734309613704681396 3.53286480903625488 -1.12692558765411377
0.678666293621063232 2.20441842079162598 -1.13113534450531006
-1.11092853546142578 1.95560288429260254 -1.01717782020568848
1.29551517963409424 4.44856929779052734 -0.740613043308258057
0.672476291656494141 2.18720316886901855 -1.11858689785003662
-0.304287374019622803 2.71311140060424805 -0.909208595752716064
1.50172710418701172 4.63727807998657227 -0.587323427200317383
-1.98791515827178955 3.68335962295532227 -1.16400682926177979
-1.69068872928619385 2.45331382751464844 -1.17848408222198486
0.902823269367218018 2.44917130470275879 -1.1131206750869751
-2.93584156036376953 4.40199661254882812 -0.981968045234680176
0.672398090362548828 2.18229365348815918 -1.10840940475463867
0.521574795246124268 1.63509058952331543 -1.15817654132843018
-0.137766063213348389 3.01638412475585938 -1.19574081897735596
2.42579913139343262 3.91354846954345703 -1.08045029640197754
0.678975343704223633 2.21643710136413574 -1.07074320316314697
1.09494137763977051 2.64546394348144531 -1.07143604755401611
-2.07132744789123535 4.45715951919555664 -0.90865713357925415
0.096332453191280365 2.76063013076782227 -1.17960751056671143
0.71530604362487793 4.22466754913330078 -0.319275349378585815
0.987237334251403809 4.28670597076416016 -0.754538178443908691
-2.00513243675231934 3.01640081405639648 -0.73039776086807251
0.633198142051696777 2.64257645606994629 -1.11935687065124512
-0.288532733917236328 3.90322566032409668 -1.12588691711425781
0.0783600658178329468 2.80456447601318359 -1.1835329532623291
1.11117422580718994 2.60963964462280273 -1.10902571678161621
1.9228215217590332 2.68341994285583496 -0.913154363632202148
0.928654670715332031 3.97433805465698242 -0.632328450679779053
-1.69830775260925293 2.69905424118041992 -1.15373432636260986
1.72567129135131836 3.98409318923950195 -0.720733702182769775
-0.184532344341278076 2.29351115226745605 -1.18294084072113037
-0.571034073829650879 2.04321026802062988 -1.15703010559082031
-0.24233342707157135 3.72440004348754883 -0.845426797866821289
0.208303302526473999 1.36473512649536133 -1.10425114631652832
-1.48707973957061768 3.07418489456176758 -0.799512743949890137
-0.146836936473846436 2.90966463088989258 -1.22186422348022461
-2.20009279251098633 1.10614264011383057 -1.05874729156494141
0.712135016918182373 2.1937096118927002 -1.10593128204345703
-1.20465600490570068 3.49957895278930664 -0.512198090553283691
-0.379807174205780029 3.35983586311340332 -1.11861824989318848
-0.70669400691986084 3.40922760963439941 -1.08886897563934326
-0.11391720175743103 2.41750097274780273 -1.17053902149200439
1.72823214530944824 3.95813179016113281 -0.723243832588195801
-0.00381547212600708008 3.5545344352722168 -1.09084177017211914
0.374053210020065308 4.25602006912231445 -0.701584279537200928
1.08473443984985352 2.6332700252532959 -1.07116115093231201
0.672906577587127686 2.17827939987182617 -1.09965002536773682
-1.08872818946838379 2.4593513011932373 -1.08837282657623291
1.21903431415557861 1.83987593650817871 -1.12687218189239502
0.0595772378146648407 2.71419334411621094 -1.17331612110137939
-0.904787719249725342 3.60883307456970215 -1.00981438159942627
-1.09418535232543945 2.4545745849609375 -1.10026299953460693
-0.285153865814208984 2.02728366851806641 -1.20366156101226807
-0.192868888378143311 3.48372054100036621 -1.04869723320007324
0.155994608998298645 2.66056251525878906 -1.16655647754669189
-1.21342694759368896 3.3215479850769043 -1.19448971748352051
1.74522531032562256 3.1157677173614502 -0.472734659910202026
-1.11457514762878418 3.7068328857421875 -0.561762154102325439
-0.32043921947479248 2.21267580986022949 -1.16179847717285156
-0.00181189179420471191 4.0289149284362793 -1.00843405723571777
-0.020382218062877655 2.72258424758911133 -1.16382050514221191
-0.809500813484191895 2.59095287322998047 -1.24578583240509033
-1.3690720796585083 2.10698485374450684 -0.691250264644622803
-0.00448647141456604004 2.48050689697265625 -1.15679013729095459
0.139438077807426453 2.76889538764953613 -1.1757732629776001
-0.590372025966644287 1.9670482873916626 -1.16984009742736816
1.390899658203125 3.2296454906463623 -0.947812438011169434
0.216232955455780029 1.35700452327728271 -1.1194223165512085
0.194260448217391968 1.40331673622131348 -1.10658121109008789
0.075320027768611908 2.80027580261230469 -1.18130767345428467
-0.257883906364440918 4.43573665618896484 -0.4943675696849823
0.772038519382476807 4.12950372695922852 -0.857404172420501709
-0.323448389768600464 2.08878684043884277 -1.19907927513122559
0.622012734413146973 3.56360197067260742 -0.996810555458068848
-1.72470641136169434 2.47725844383239746 -1.12889838218688965
0.753528833389282227 3.51967954635620117 -1.11774814128875732
0.0566291697323322296 2.7237086296081543 -1.17796802520751953
-0.980702042579650879 3.86273455619812012 -1.14095163345336914
-0.362724721431732178 2.24460244178771973 -1.10667240619659424
0.861137628555297852 3.72112393379211426 -1.08086228370666504
-0.289677917957305908 3.91565895080566406 -1.09896695613861084
0.786256194114685059 4.15009164810180664 -1.01589787006378174
1.14537930488586426 3.58966350555419922 -0.872584402561187744
0.0129938721656799316 2.90613079071044922 -1.190277099609375
0.887519001960754395 4.61611461639404297 -0.730304360389709473
-2.56918644905090332 1.90437233448028564 -0.813184261322021484
-0.0593938827514648438 0.807170867919921875 -1.19540035724639893
2.1027374267578125 3.28799104690551758 -0.708374381065368652
1.08764982223510742 2.63790559768676758 -1.08804988861083984
-0.881595313549041748 3.61698269844055176 -0.667649030685424805
0.674931347370147705 2.17806363105773926 -1.09787166118621826
0.672337949275970459 2.19381308555603027 -1.11730849742889404
0.113158047199249268 2.8778836727142334 -1.14163541793823242
-1.19685900211334229 2.73225164413452148 -1.22216737270355225
-1.51562929153442383 3.2206268310546875 -0.79966580867767334
0.0544867441058158875 2.8796381950378418 -1.17579209804534912
0.249950200319290161 4.20458745956420898 -0.662697851657867432
0.095059610903263092 3.0615537166595459 -1.18018901348114014
-0.547180891036987305 3.46841073036193848 -0.89900892972946167
1.12315547466278076 2.61781215667724609 -1.09494400024414062
0.183664023876190186 1.39850354194641113 -1.1019972562789917
1.09537005424499512 2.61807513236999512 -1.08097350597381592
