ply
format ascii 1.0
element vertex 113
comment vertices
property float x
property float y
property float z
end_header
-0.563305139541625977 1.92541599273681641 -1.20586645603179932
1.15035116672515869 2.61156702041625977 -1.10982012748718262
0.0200881361961364746 2.68297839164733887 -1.1268010139465332
0.672312736511230469 2.16103339195251465 -1.11758065223693848
-1.11169981956481934 2.45171713829040527 -1.10215127468109131
0.255946964025497437 3.06086134910583496 -1.11319267749786377
-0.296630024909973145 3.91697096824645996 -1.0945591926574707
0.197241976857185364 2.66724038124084473 -1.16674351692199707
1.10970330238342285 2.60699295997619629 -1.08980488777160645
0.198390841484069824 1.34775173664093018 -1.12725043296813965
-0.0162548571825027466 2.46784019470214844 -1.13835442066192627
0.74700850248336792 3.55977082252502441 -1.12492048740386963
0.0338958688080310822 2.92287111282348633 -1.15696489810943604
0.041673753410577774 2.6350548267364502 -1.1706010103225708
0.690330624580383301 2.18575954437255859 -1.10048162937164307
-0.198446080088615417 2.1748654842376709 -1.21159148216247559
-0.524024307727813721 2.53069257736206055 -1.16499578952789307
1.11918258666992188 2.61984467506408691 -1.11664903163909912
-0.292359441518783569 2.13567042350769043 -1.18713927268981934
-0.358926683664321899 3.83911681175231934 -1.12343227863311768
0.772753715515136719 3.53636503219604492 -1.12871921062469482
0.718720912933349609 3.40900039672851562 -1.11467444896697998
-1.11188328266143799 2.45269227027893066 -1.05378079414367676
0.205105870962142944 1.35815811157226562 -1.13241338729858398
0.662980794906616211 2.20616626739501953 -1.12017321586608887
1.10103321075439453 2.61904263496398926 -1.08962368965148926
0.0594902820885181427 2.5526885986328125 -1.17825925350189209
0.214553117752075195 1.36634457111358643 -1.09315609931945801
0.0756353884935379028 2.7505333423614502 -1.17245841026306152
0.668125271797180176 2.19978976249694824 -1.1071394681930542
0.0429825857281684875 2.5314028263092041 -1.16210639476776123
1.1386340856552124 2.63539814949035645 -1.10411322116851807
0.0353365950286388397 2.76384997367858887 -1.15116453170776367
-0.361949890851974487 1.99917221069335938 -1.21859192848205566
-0.334567755460739136 2.17454910278320312 -1.14208352565765381
0.488938331604003906 2.62697553634643555 -1.10955584049224854
0.108090907335281372 2.79119396209716797 -1.16364455223083496
0.028817247599363327 2.69973230361938477 -1.13084018230438232
-0.0672245696187019348 2.34484100341796875 -1.17025339603424072
-0.292215675115585327 3.9128563404083252 -1.07633984088897705
-1.10637223720550537 2.45101404190063477 -1.09208190441131592
-0.172673746943473816 3.34918975830078125 -1.15829682350158691
-0.133172497153282166 2.29309439659118652 -1.14042460918426514
0.677075028419494629 2.196990966796875 -1.1035686731338501
0.75750279426574707 3.55254912376403809 -1.11698007583618164
1.08477437496185303 2.6629490852355957 -1.058624267578125
0.183232083916664124 1.36064016819000244 -1.13433599472045898
1.09433495998382568 2.66587591171264648 -1.06025099754333496
-0.300757527351379395 1.9653095006942749 -1.18659675121307373
-0.162355884909629822 2.4769895076751709 -1.16442084312438965
1.1095508337020874 2.6110389232635498 -1.0848243236541748
-0.641876935958862305 1.85089898109436035 -1.16026616096496582
-0.150014311075210571 2.39696907997131348 -1.14818203449249268
-0.453679561614990234 1.98507189750671387 -1.19961285591125488
0.208330094814300537 1.34962129592895508 -1.1121680736541748
0.654590189456939697 2.21425843238830566 -1.11147904396057129
0.669595062732696533 2.23893332481384277 -1.10390758514404297
1.13170492649078369 2.65336489677429199 -1.09929680824279785
0.772851228713989258 3.53514218330383301 -1.12240397930145264
-1.10702192783355713 2.45073366165161133 -1.06121265888214111
0.759210884571075439 3.56171679496765137 -1.11127138137817383
-0.296754986047744751 3.91130256652832031 -1.1089179515838623
0.668473601341247559 2.21823763847351074 -1.12231063842773438
0.20808139443397522 1.36951339244842529 -1.10820448398590088
0.0185165032744407654 2.5259554386138916 -1.17617082595825195
0.664970993995666504 2.20219278335571289 -1.10375404357910156
-1.10516977310180664 2.45094537734985352 -1.08623051643371582
-0.121603399515151978 2.62094306945800781 -1.15832126140594482
0.748683810234069824 3.55227327346801758 -1.10325896739959717
0.0497526712715625763 2.50549674034118652 -1.16357481479644775
1.07782256603240967 2.63878798484802246 -1.0857551097869873
0.678847670555114746 2.21578717231750488 -1.10805714130401611
-0.0113496407866477966 2.53320026397705078 -1.15621340274810791
0.667982339859008789 2.22024226188659668 -1.12321615219116211
0.680936872959136963 2.22402095794677734 -1.0798037052154541
0.0664095282554626465 2.94528603553771973 -1.14840757846832275
0.008355678990483284 2.46810460090637207 -1.15930342674255371
-0.314680397510528564 2.18047642707824707 -1.16534256935119629
0.666841745376586914 2.19846224784851074 -1.10136842727661133
-0.0526564121246337891 2.53874874114990234 -1.15662920475006104
-0.0429910793900489807 2.83852171897888184 -1.18234312534332275
0.761993885040283203 3.4519507884979248 -1.09361004829406738
0.131671547889709473 2.66016817092895508 -1.13841772079467773
0.114293083548545837 2.35234594345092773 -1.1556776762008667
-0.264922350645065308 2.15928435325622559 -1.16394960880279541
0.017366211861371994 1.96124029159545898 -1.18593502044677734
1.09018301963806152 2.63489556312561035 -1.06971836090087891
-1.112526535987854 2.45870113372802734 -1.06550955772399902
0.0939312055706977844 2.78531336784362793 -1.16599071025848389
-0.0979570001363754272 2.39916443824768066 -1.18841171264648438
-0.13837568461894989 3.12864589691162109 -1.15281403064727783
0.0279028639197349548 2.61744213104248047 -1.12960147857666016
-1.10536229610443115 2.4489891529083252 -1.08332061767578125
0.028729952871799469 2.73102021217346191 -1.13617205619812012
-0.289642691612243652 1.98771357536315918 -1.19558227062225342
-0.43630644679069519 2.03885626792907715 -1.17127501964569092
0.240896329283714294 3.04526257514953613 -1.15763449668884277
0.0186382979154586792 2.7168424129486084 -1.13888716697692871
0.0575784072279930115 2.71570301055908203 -1.16747534275054932
0.0142071805894374847 2.5303657054901123 -1.17344045639038086
-0.585685193538665771 1.9321293830871582 -1.17724502086639404
0.203143402934074402 1.36762857437133789 -1.10130059719085693
-0.452219307422637939 1.91130387783050537 -1.22011804580688477
0.664858162403106689 2.2023322582244873 -1.11014354228973389
-0.0188419893383979797 2.86905312538146973 -1.16063439846038818
-0.298396974802017212 3.90828323364257812 -1.1199880838394165
0.0387841947376728058 2.66600346565246582 -1.12000751495361328
-0.130081906914710999 2.34273123741149902 -1.15077149868011475
1.12708389759063721 2.61146926879882812 -1.08990824222564697
-0.305021047592163086 2.0226590633392334 -1.1939467191696167
1.09956216812133789 2.6215822696685791 -1.0778423547744751
-0.280508100986480713 3.91746187210083008 -1.0775001049041748
-0.00479605048894882202 2.44595646858215332 -1.171303391456604
